0
SECTION
2
HEADER
9
$INSUNITS
70
4
9
$ACADVER
1
AC1014
9
$HANDSEED
5
FFFF
0
ENDSEC
0
SECTION
2
TABLES
0
TABLE
2
VPORT
5
8
100
AcDbSymbolTable
0
ENDTAB
0
TABLE
2
LTYPE
5
5
100
AcDbSymbolTable
0
LTYPE
5
14
100
AcDbSymbolTableRecord
100
AcDbLinetypeTableRecord
2
BYBLOCK
70
0
0
LTYPE
5
15
100
AcDbSymbolTableRecord
100
AcDbLinetypeTableRecord
2
BYLAYER
70
0
0
ENDTAB
0
TABLE
2
LAYER
5
2
100
AcDbSymbolTable
70
2
0
LAYER
5
50
100
AcDbSymbolTableRecord
100
AcDbLayerTableRecord
2
0
70
0
6
CONTINUOUS
0
ENDTAB
0
TABLE
2
STYLE
5
3
100
AcDbSymbolTable
70
1
0
STYLE
5
11
100
AcDbSymbolTableRecord
100
AcDbTextStyleTableRecord
2
STANDARD
70
0
0
ENDTAB
0
TABLE
2
VIEW
5
6
100
AcDbSymbolTable
70
0
0
ENDTAB
0
TABLE
2
UCS
5
7
100
AcDbSymbolTable
70
0
0
ENDTAB
0
TABLE
2
APPID
5
9
100
AcDbSymbolTable
70
2
0
APPID
5
12
100
AcDbSymbolTableRecord
100
AcDbRegAppTableRecord
2
ACAD
70
0
0
ENDTAB
0
TABLE
2
DIMSTYLE
5
A
100
AcDbSymbolTable
70
1
0
ENDTAB
0
TABLE
2
BLOCK_RECORD
5
1
100
AcDbSymbolTable
70
1
0
BLOCK_RECORD
5
1F
100
AcDbSymbolTableRecord
100
AcDbBlockTableRecord
2
*MODEL_SPACE
0
BLOCK_RECORD
5
1B
100
AcDbSymbolTableRecord
100
AcDbBlockTableRecord
2
*PAPER_SPACE
0
ENDTAB
0
ENDSEC
0
SECTION
2
BLOCKS
0
BLOCK
5
20
100
AcDbEntity
100
AcDbBlockBegin
2
*MODEL_SPACE
0
ENDBLK
5
21
100
AcDbEntity
100
AcDbBlockEnd
0
BLOCK
5
1C
100
AcDbEntity
100
AcDbBlockBegin
2
*PAPER_SPACE
0
ENDBLK
5
1D
100
AcDbEntity
100
AcDbBlockEnd
0
ENDSEC
0
SECTION
2
ENTITIES
0
LWPOLYLINE
5
100
100
AcDbEntity
8
0
100
AcDbPolyline
90
8
70
1
43
0.0
10
3.0249999999999999
20
-2.5249999999999999
10
16.024999999999999
20
-2.5250000000000017
42
-0.41421356237309509
10
16.524999999999999
20
-3.0249999999999999
10
16.524999999999999
20
-16.024999999999999
42
-0.41421356237309509
10
16.024999999999999
20
-16.524999999999999
10
3.0249999999999999
20
-16.525000000000002
42
-0.41421356237309509
10
2.5249999999999999
20
-16.024999999999999
10
2.5249999999999999
20
-3.0249999999999999
42
-0.41421356237309509
0
LWPOLYLINE
5
101
100
AcDbEntity
8
0
100
AcDbPolyline
90
8
70
1
43
0.0
10
41.125
20
-2.5249999999999999
10
54.125000000000007
20
-2.5250000000000017
42
-0.41421356237309509
10
54.625
20
-3.0249999999999999
10
54.625
20
-16.024999999999999
42
-0.41421356237309509
10
54.125000000000007
20
-16.524999999999999
10
41.125
20
-16.524999999999999
42
-0.41421356237309509
10
40.625
20
-16.024999999999999
10
40.625
20
-3.0249999999999999
42
-0.41421356237309509
0
LWPOLYLINE
5
102
100
AcDbEntity
8
0
100
AcDbPolyline
90
8
70
1
43
0.0
10
60.174999999999997
20
-2.5249999999999999
10
73.174999999999997
20
-2.5250000000000017
42
-0.41421356237309509
10
73.674999999999997
20
-3.0249999999999999
10
73.674999999999997
20
-16.024999999999999
42
-0.41421356237309509
10
73.174999999999997
20
-16.524999999999999
10
60.174999999999997
20
-16.524999999999999
42
-0.41421356237309509
10
59.675000000000004
20
-16.024999999999999
10
59.675000000000004
20
-3.0249999999999999
42
-0.41421356237309509
0
LWPOLYLINE
5
103
100
AcDbEntity
8
0
100
AcDbPolyline
90
8
70
1
43
0.0
10
79.224999999999994
20
-2.5249999999999999
10
92.224999999999994
20
-2.5250000000000106
42
-0.41421356237309509
10
92.724999999999994
20
-3.0249999999999999
10
92.725000000000009
20
-16.024999999999999
42
-0.41421356237309509
10
92.224999999999994
20
-16.524999999999999
10
79.224999999999994
20
-16.524999999999999
42
-0.41421356237309509
10
78.724999999999994
20
-16.024999999999999
10
78.724999999999994
20
-3.0249999999999999
42
-0.41421356237309509
0
LWPOLYLINE
5
104
100
AcDbEntity
8
0
100
AcDbPolyline
90
8
70
1
43
0.0
10
98.275000000000006
20
-2.5249999999999999
10
111.27500000000001
20
-2.5249999999999928
42
-0.41421356237309509
10
111.77500000000002
20
-3.0249999999999999
10
111.77500000000002
20
-16.024999999999999
42
-0.41421356237309509
10
111.27500000000001
20
-16.524999999999999
10
98.275000000000006
20
-16.524999999999991
42
-0.41421356237309509
10
97.77500000000002
20
-16.024999999999999
10
97.775000000000006
20
-3.0249999999999999
42
-0.41421356237309509
0
LWPOLYLINE
5
105
100
AcDbEntity
8
0
100
AcDbPolyline
90
8
70
1
43
0.0
10
126.85000000000001
20
-2.5249999999999999
10
139.84999999999999
20
-2.5249999999999928
42
-0.41421356237309509
10
140.34999999999999
20
-3.0249999999999999
10
140.34999999999999
20
-16.024999999999999
42
-0.41421356237309509
10
139.84999999999999
20
-16.524999999999999
10
126.85000000000001
20
-16.525000000000006
42
-0.41421356237309509
10
126.34999999999999
20
-16.024999999999999
10
126.34999999999999
20
-3.0249999999999999
42
-0.41421356237309509
0
LWPOLYLINE
5
106
100
AcDbEntity
8
0
100
AcDbPolyline
90
8
70
1
43
0.0
10
145.90000000000001
20
-2.5249999999999999
10
158.90000000000001
20
-2.5249999999999928
42
-0.41421356237309509
10
159.40000000000001
20
-3.0249999999999999
10
159.40000000000001
20
-16.024999999999999
42
-0.41421356237309509
10
158.90000000000001
20
-16.524999999999999
10
145.90000000000001
20
-16.525000000000006
42
-0.41421356237309509
10
145.40000000000001
20
-16.024999999999999
10
145.40000000000001
20
-3.0249999999999999
42
-0.41421356237309509
0
LWPOLYLINE
5
107
100
AcDbEntity
8
0
100
AcDbPolyline
90
8
70
1
43
0.0
10
164.95000000000002
20
-2.5249999999999999
10
177.94999999999999
20
-2.5249999999999928
42
-0.41421356237309509
10
178.44999999999999
20
-3.0249999999999999
10
178.44999999999999
20
-16.024999999999999
42
-0.41421356237309509
10
177.94999999999999
20
-16.524999999999999
10
164.95000000000002
20
-16.525000000000006
42
-0.41421356237309509
10
164.44999999999999
20
-16.024999999999999
10
164.44999999999999
20
-3.0249999999999999
42
-0.41421356237309509
0
LWPOLYLINE
5
108
100
AcDbEntity
8
0
100
AcDbPolyline
90
8
70
1
43
0.0
10
184.00000000000003
20
-2.5249999999999999
10
197.00000000000003
20
-2.5250000000000283
42
-0.41421356237309509
10
197.5
20
-3.0249999999999999
10
197.50000000000003
20
-16.024999999999999
42
-0.41421356237309509
10
197.00000000000003
20
-16.524999999999999
10
184.00000000000003
20
-16.525000000000006
42
-0.41421356237309509
10
183.5
20
-16.024999999999999
10
183.5
20
-3.0249999999999999
42
-0.41421356237309509
0
LWPOLYLINE
5
109
100
AcDbEntity
8
0
100
AcDbPolyline
90
8
70
1
43
0.0
10
212.57499999999999
20
-2.5249999999999999
10
225.57500000000002
20
-2.5249999999999928
42
-0.41421356237309509
10
226.07500000000002
20
-3.0249999999999999
10
226.07500000000002
20
-16.024999999999999
42
-0.41421356237309509
10
225.57500000000002
20
-16.524999999999999
10
212.57499999999999
20
-16.525000000000006
42
-0.41421356237309509
10
212.07499999999999
20
-16.024999999999999
10
212.07499999999999
20
-3.0249999999999999
42
-0.41421356237309509
0
LWPOLYLINE
5
110
100
AcDbEntity
8
0
100
AcDbPolyline
90
8
70
1
43
0.0
10
231.625
20
-2.5249999999999999
10
244.62500000000003
20
-2.5249999999999928
42
-0.41421356237309509
10
245.12500000000003
20
-3.0249999999999999
10
245.12500000000003
20
-16.024999999999999
42
-0.41421356237309509
10
244.62500000000003
20
-16.524999999999999
10
231.625
20
-16.525000000000006
42
-0.41421356237309509
10
231.125
20
-16.024999999999999
10
231.125
20
-3.0249999999999999
42
-0.41421356237309509
0
LWPOLYLINE
5
111
100
AcDbEntity
8
0
100
AcDbPolyline
90
8
70
1
43
0.0
10
250.67500000000001
20
-2.5249999999999999
10
263.67500000000001
20
-2.5249999999999928
42
-0.41421356237309509
10
264.17500000000007
20
-3.0249999999999999
10
264.17500000000007
20
-16.024999999999999
42
-0.41421356237309509
10
263.67500000000001
20
-16.524999999999999
10
250.67500000000001
20
-16.525000000000006
42
-0.41421356237309509
10
250.17500000000001
20
-16.024999999999999
10
250.17500000000001
20
-3.0249999999999999
42
-0.41421356237309509
0
LWPOLYLINE
5
112
100
AcDbEntity
8
0
100
AcDbPolyline
90
8
70
1
43
0.0
10
269.72500000000002
20
-2.5249999999999999
10
282.72500000000002
20
-2.5249999999999928
42
-0.41421356237309509
10
283.22500000000002
20
-3.0249999999999999
10
283.22500000000002
20
-16.024999999999999
42
-0.41421356237309509
10
282.72500000000002
20
-16.524999999999999
10
269.72500000000002
20
-16.525000000000006
42
-0.41421356237309509
10
269.22500000000002
20
-16.024999999999999
10
269.22500000000002
20
-3.0249999999999999
42
-0.41421356237309509
0
LWPOLYLINE
5
113
100
AcDbEntity
8
0
100
AcDbPolyline
90
8
70
1
43
0.0
10
293.85563500000001
20
-2.5249999999999999
10
306.85563500000001
20
-2.5249999999999928
42
-0.41421356237309509
10
307.35563500000001
20
-3.0249999999999999
10
307.35563500000001
20
-16.024999999999999
42
-0.41421356237309509
10
306.85563500000001
20
-16.524999999999999
10
293.85563500000001
20
-16.525000000000006
42
-0.41421356237309509
10
293.35563500000001
20
-16.024999999999999
10
293.35563500000001
20
-3.0249999999999999
42
-0.41421356237309509
0
LWPOLYLINE
5
114
100
AcDbEntity
8
0
100
AcDbPolyline
90
8
70
1
43
0.0
10
312.90563500000007
20
-2.5249999999999999
10
325.90563500000002
20
-2.5249999999999573
42
-0.41421356237309509
10
326.40563500000007
20
-3.0249999999999999
10
326.40563499999996
20
-16.024999999999999
42
-0.41421356237309509
10
325.90563500000002
20
-16.524999999999999
10
312.90563500000007
20
-16.525000000000006
42
-0.41421356237309509
10
312.40563500000002
20
-16.024999999999999
10
312.40563500000002
20
-3.0249999999999999
42
-0.41421356237309509
0
LWPOLYLINE
5
115
100
AcDbEntity
8
0
100
AcDbPolyline
90
8
70
1
43
0.0
10
331.95563500000003
20
-2.5249999999999999
10
344.95563500000003
20
-2.5249999999999573
42
-0.41421356237309509
10
345.45563500000009
20
-3.0249999999999999
10
345.45563500000003
20
-16.024999999999999
42
-0.41421356237309509
10
344.95563500000003
20
-16.524999999999999
10
331.95563500000003
20
-16.525000000000041
42
-0.41421356237309509
10
331.45563500000003
20
-16.024999999999999
10
331.45563500000009
20
-3.0249999999999999
42
-0.41421356237309509
0
LWPOLYLINE
5
116
100
AcDbEntity
8
0
100
AcDbPolyline
90
8
70
1
43
0.0
10
3.0249999999999999
20
-30.465634999999999
10
16.024999999999999
20
-30.465635000000006
42
-0.41421356237309509
10
16.524999999999999
20
-30.965635000000002
10
16.524999999999999
20
-43.965634999999999
42
-0.41421356237309509
10
16.024999999999999
20
-44.465634999999999
10
3.0249999999999999
20
-44.465634999999999
42
-0.41421356237309509
10
2.5249999999999999
20
-43.965634999999999
10
2.5249999999999972
20
-30.965635000000002
42
-0.41421356237309509
0
LWPOLYLINE
5
117
100
AcDbEntity
8
0
100
AcDbPolyline
90
8
70
1
43
0.0
10
22.074999999999999
20
-30.465634999999999
10
35.075000000000003
20
-30.465634999999999
42
-0.41421356237309509
10
35.575000000000003
20
-30.965635000000002
10
35.575000000000003
20
-43.965634999999999
42
-0.41421356237309509
10
35.075000000000003
20
-44.465634999999999
10
22.074999999999999
20
-44.465634999999999
42
-0.41421356237309509
10
21.575000000000003
20
-43.965634999999999
10
21.574999999999996
20
-30.965635000000002
42
-0.41421356237309509
0
LWPOLYLINE
5
118
100
AcDbEntity
8
0
100
AcDbPolyline
90
8
70
1
43
0.0
10
41.125
20
-30.465634999999999
10
54.125000000000007
20
-30.465635000000006
42
-0.41421356237309509
10
54.625
20
-30.965635000000002
10
54.625
20
-43.965634999999999
42
-0.41421356237309509
10
54.125000000000007
20
-44.465634999999999
10
41.125
20
-44.465634999999999
42
-0.41421356237309509
10
40.625
20
-43.965634999999999
10
40.625
20
-30.965635000000002
42
-0.41421356237309509
0
LWPOLYLINE
5
119
100
AcDbEntity
8
0
100
AcDbPolyline
90
8
70
1
43
0.0
10
60.174999999999997
20
-30.465634999999999
10
73.174999999999997
20
-30.465635000000006
42
-0.41421356237309509
10
73.674999999999997
20
-30.965635000000002
10
73.674999999999997
20
-43.965634999999999
42
-0.41421356237309509
10
73.174999999999997
20
-44.465634999999999
10
60.174999999999997
20
-44.465634999999999
42
-0.41421356237309509
10
59.675000000000004
20
-43.965634999999999
10
59.674999999999997
20
-30.965635000000002
42
-0.41421356237309509
0
LWPOLYLINE
5
120
100
AcDbEntity
8
0
100
AcDbPolyline
90
8
70
1
43
0.0
10
79.224999999999994
20
-30.465634999999999
10
92.224999999999994
20
-30.465635000000013
42
-0.41421356237309509
10
92.724999999999994
20
-30.965635000000002
10
92.725000000000009
20
-43.965634999999999
42
-0.41421356237309509
10
92.224999999999994
20
-44.465634999999999
10
79.224999999999994
20
-44.465634999999999
42
-0.41421356237309509
10
78.724999999999994
20
-43.965634999999999
10
78.724999999999994
20
-30.965635000000002
42
-0.41421356237309509
0
LWPOLYLINE
5
121
100
AcDbEntity
8
0
100
AcDbPolyline
90
8
70
1
43
0.0
10
98.275000000000006
20
-30.465634999999999
10
111.27500000000001
20
-30.465634999999995
42
-0.41421356237309509
10
111.77500000000002
20
-30.965635000000002
10
111.77500000000002
20
-43.965634999999999
42
-0.41421356237309509
10
111.27500000000001
20
-44.465634999999999
10
98.275000000000006
20
-44.465634999999992
42
-0.41421356237309509
10
97.77500000000002
20
-43.965634999999999
10
97.775000000000006
20
-30.965635000000002
42
-0.41421356237309509
0
LWPOLYLINE
5
122
100
AcDbEntity
8
0
100
AcDbPolyline
90
8
70
1
43
0.0
10
117.32500000000002
20
-30.465634999999999
10
130.32499999999999
20
-30.465634999999995
42
-0.41421356237309509
10
130.82499999999999
20
-30.965635000000002
10
130.82499999999999
20
-43.965634999999999
42
-0.41421356237309509
10
130.32499999999999
20
-44.465634999999999
10
117.32500000000002
20
-44.465635000000006
42
-0.41421356237309509
10
116.82500000000002
20
-43.965634999999999
10
116.82500000000002
20
-30.965635000000002
42
-0.41421356237309509
0
LWPOLYLINE
5
123
100
AcDbEntity
8
0
100
AcDbPolyline
90
8
70
1
43
0.0
10
136.375
20
-30.465634999999999
10
149.375
20
-30.465634999999995
42
-0.41421356237309509
10
149.875
20
-30.965635000000002
10
149.875
20
-43.965634999999999
42
-0.41421356237309509
10
149.375
20
-44.465634999999999
10
136.375
20
-44.465635000000006
42
-0.41421356237309509
10
135.875
20
-43.965634999999999
10
135.875
20
-30.965635000000002
42
-0.41421356237309509
0
LWPOLYLINE
5
124
100
AcDbEntity
8
0
100
AcDbPolyline
90
8
70
1
43
0.0
10
155.42500000000001
20
-30.465634999999999
10
168.42500000000001
20
-30.465634999999995
42
-0.41421356237309509
10
168.92500000000001
20
-30.965635000000002
10
168.92500000000001
20
-43.965634999999999
42
-0.41421356237309509
10
168.42500000000001
20
-44.465634999999999
10
155.42500000000001
20
-44.465635000000006
42
-0.41421356237309509
10
154.92500000000001
20
-43.965634999999999
10
154.92500000000001
20
-30.965635000000002
42
-0.41421356237309509
0
LWPOLYLINE
5
125
100
AcDbEntity
8
0
100
AcDbPolyline
90
8
70
1
43
0.0
10
174.47500000000002
20
-30.465634999999999
10
187.47499999999999
20
-30.465634999999995
42
-0.41421356237309509
10
187.97499999999999
20
-30.965635000000002
10
187.97499999999999
20
-43.965634999999999
42
-0.41421356237309509
10
187.47499999999999
20
-44.465634999999999
10
174.47500000000002
20
-44.465635000000006
42
-0.41421356237309509
10
173.97500000000002
20
-43.965634999999999
10
173.97500000000002
20
-30.965635000000002
42
-0.41421356237309509
0
LWPOLYLINE
5
126
100
AcDbEntity
8
0
100
AcDbPolyline
90
8
70
1
43
0.0
10
193.52500000000003
20
-30.465634999999999
10
206.52500000000003
20
-30.465635000000031
42
-0.41421356237309509
10
207.02500000000001
20
-30.965635000000002
10
207.02500000000003
20
-43.965634999999999
42
-0.41421356237309509
10
206.52500000000003
20
-44.465634999999999
10
193.52500000000003
20
-44.465635000000006
42
-0.41421356237309509
10
193.02500000000003
20
-43.965634999999999
10
193.02500000000003
20
-30.965635000000002
42
-0.41421356237309509
0
LWPOLYLINE
5
127
100
AcDbEntity
8
0
100
AcDbPolyline
90
8
70
1
43
0.0
10
212.57499999999999
20
-30.465634999999999
10
225.57500000000002
20
-30.465634999999995
42
-0.41421356237309509
10
226.07500000000002
20
-30.965635000000002
10
226.07500000000002
20
-43.965634999999999
42
-0.41421356237309509
10
225.57500000000002
20
-44.465634999999999
10
212.57499999999999
20
-44.465635000000006
42
-0.41421356237309509
10
212.07499999999999
20
-43.965634999999999
10
212.07499999999999
20
-30.965635000000002
42
-0.41421356237309509
0
LWPOLYLINE
5
128
100
AcDbEntity
8
0
100
AcDbPolyline
90
8
70
1
43
0.0
10
231.625
20
-30.465634999999999
10
244.62500000000003
20
-30.465634999999995
42
-0.41421356237309509
10
245.12500000000003
20
-30.965635000000002
10
245.12500000000003
20
-43.965634999999999
42
-0.41421356237309509
10
244.62500000000003
20
-44.465634999999999
10
231.625
20
-44.465635000000006
42
-0.41421356237309509
10
231.125
20
-43.965634999999999
10
231.125
20
-30.965635000000002
42
-0.41421356237309509
0
LWPOLYLINE
5
129
100
AcDbEntity
8
0
100
AcDbPolyline
90
24
70
1
43
0.0
10
250.67500000000001
20
-30.465634999999999
10
282.72500000000002
20
-30.465634999999995
42
-0.41421356237309509
10
283.22500000000002
20
-30.965635000000002
10
283.22500000000002
20
-43.965634999999999
42
-0.41421356237309509
10
282.72500000000002
20
-44.465634999999999
10
282.63799999999998
20
-44.465634999999999
42
0.41421356237313145
10
282.13799999999998
20
-44.965634999999999
10
282.13799999999998
20
-45.965635000000006
42
-0.41421356237309509
10
281.63799999999998
20
-46.465634999999999
10
275.63800000000003
20
-46.465635000000006
42
-0.41421356237309509
10
275.13799999999998
20
-45.965635000000006
10
275.13799999999998
20
-44.96563499999997
42
0.41421356237309509
10
274.63799999999998
20
-44.46563499999997
10
258.762
20
-44.46563499999997
42
0.41421356237309509
10
258.262
20
-44.96563499999997
10
258.26200000000006
20
-45.965635000000006
42
-0.41421356237309509
10
257.76200000000006
20
-46.465634999999999
10
251.762
20
-46.465635000000006
42
-0.41421356237309509
10
251.262
20
-45.965635000000006
10
251.262
20
-44.965634999999999
42
0.41421356237307427
10
250.76200000000003
20
-44.465635000000006
10
250.67500000000001
20
-44.465635000000006
42
-0.41421356237309509
10
250.17500000000001
20
-43.965634999999999
10
250.17500000000001
20
-30.965635000000002
42
-0.41421356237309509
0
LWPOLYLINE
5
130
100
AcDbEntity
8
0
100
AcDbPolyline
90
8
70
1
43
0.0
10
293.85563500000001
20
-30.465634999999999
10
306.85563500000001
20
-30.465634999999995
42
-0.41421356237309509
10
307.35563500000001
20
-30.965635000000002
10
307.35563500000001
20
-43.965634999999999
42
-0.41421356237309509
10
306.85563500000001
20
-44.465634999999999
10
293.85563500000001
20
-44.465635000000006
42
-0.41421356237309509
10
293.35563500000001
20
-43.965634999999999
10
293.35563500000001
20
-30.965635000000002
42
-0.41421356237309509
0
LWPOLYLINE
5
131
100
AcDbEntity
8
0
100
AcDbPolyline
90
8
70
1
43
0.0
10
312.90563500000007
20
-30.465634999999999
10
325.90563500000002
20
-30.46563499999996
42
-0.41421356237309509
10
326.40563500000007
20
-30.965635000000002
10
326.40563499999996
20
-43.965634999999999
42
-0.41421356237309509
10
325.90563500000002
20
-44.465634999999999
10
312.90563500000007
20
-44.465635000000006
42
-0.41421356237309509
10
312.40563500000002
20
-43.965634999999999
10
312.40563500000002
20
-30.965635000000002
42
-0.41421356237309509
0
LWPOLYLINE
5
132
100
AcDbEntity
8
0
100
AcDbPolyline
90
8
70
1
43
0.0
10
331.95563500000003
20
-30.465634999999999
10
344.95563500000003
20
-30.46563499999996
42
-0.41421356237309509
10
345.45563500000009
20
-30.965635000000002
10
345.45563500000003
20
-43.965634999999999
42
-0.41421356237309509
10
344.95563500000003
20
-44.465634999999999
10
331.95563500000003
20
-44.465635000000042
42
-0.41421356237309509
10
331.45563500000003
20
-43.965634999999999
10
331.45563500000009
20
-30.965635000000002
42
-0.41421356237309509
0
LWPOLYLINE
5
133
100
AcDbEntity
8
0
100
AcDbPolyline
90
8
70
1
43
0.0
10
7.7875000000000005
20
-49.515634999999996
10
20.787500000000001
20
-49.515634999999996
42
-0.41421356237309509
10
21.287500000000001
20
-50.015634999999996
10
21.287500000000001
20
-63.015635000000003
42
-0.41421356237309509
10
20.787500000000001
20
-63.515635000000003
10
7.7875000000000005
20
-63.515635000000003
42
-0.41421356237309509
10
7.2874999999999996
20
-63.015635000000003
10
7.2875000000000023
20
-50.015634999999996
42
-0.41421356237309509
0
LWPOLYLINE
5
134
100
AcDbEntity
8
0
100
AcDbPolyline
90
8
70
1
43
0.0
10
31.600000000000001
20
-49.515634999999996
10
44.600000000000001
20
-49.515634999999989
42
-0.41421356237309509
10
45.100000000000009
20
-50.015634999999996
10
45.099999999999994
20
-63.015635000000003
42
-0.41421356237309509
10
44.600000000000001
20
-63.515635000000003
10
31.600000000000001
20
-63.515635000000003
42
-0.41421356237309509
10
31.100000000000001
20
-63.015635000000003
10
31.100000000000001
20
-50.015634999999996
42
-0.41421356237309509
0
LWPOLYLINE
5
135
100
AcDbEntity
8
0
100
AcDbPolyline
90
8
70
1
43
0.0
10
50.650000000000006
20
-49.515634999999996
10
63.650000000000006
20
-49.515634999999989
42
-0.41421356237309509
10
64.150000000000006
20
-50.015634999999996
10
64.150000000000006
20
-63.015635000000003
42
-0.41421356237309509
10
63.650000000000006
20
-63.515635000000003
10
50.650000000000006
20
-63.515635000000003
42
-0.41421356237309509
10
50.150000000000006
20
-63.015635000000003
10
50.150000000000006
20
-50.015634999999996
42
-0.41421356237309509
0
LWPOLYLINE
5
136
100
AcDbEntity
8
0
100
AcDbPolyline
90
8
70
1
43
0.0
10
69.700000000000003
20
-49.515634999999996
10
82.700000000000017
20
-49.515635000000003
42
-0.41421356237309509
10
83.200000000000003
20
-50.015634999999996
10
83.200000000000003
20
-63.015635000000003
42
-0.41421356237309509
10
82.700000000000017
20
-63.515635000000003
10
69.700000000000003
20
-63.515635000000003
42
-0.41421356237309509
10
69.200000000000003
20
-63.015635000000003
10
69.200000000000003
20
-50.015634999999996
42
-0.41421356237309509
0
LWPOLYLINE
5
137
100
AcDbEntity
8
0
100
AcDbPolyline
90
8
70
1
43
0.0
10
88.75
20
-49.515634999999996
10
101.75
20
-49.515634999999989
42
-0.41421356237309509
10
102.25000000000001
20
-50.015634999999996
10
102.25000000000001
20
-63.015635000000003
42
-0.41421356237309509
10
101.75
20
-63.515635000000003
10
88.75
20
-63.515634999999989
42
-0.41421356237309509
10
88.250000000000014
20
-63.015635000000003
10
88.25
20
-50.015634999999996
42
-0.41421356237309509
0
LWPOLYLINE
5
138
100
AcDbEntity
8
0
100
AcDbPolyline
90
8
70
1
43
0.0
10
107.80000000000001
20
-49.515634999999996
10
120.8
20
-49.515634999999989
42
-0.41421356237309509
10
121.30000000000001
20
-50.015634999999996
10
121.29999999999998
20
-63.015635000000003
42
-0.41421356237309509
10
120.8
20
-63.515635000000003
10
107.80000000000001
20
-63.51563500000001
42
-0.41421356237309509
10
107.30000000000001
20
-63.015635000000003
10
107.30000000000001
20
-50.015634999999996
42
-0.41421356237309509
0
LWPOLYLINE
5
139
100
AcDbEntity
8
0
100
AcDbPolyline
90
8
70
1
43
0.0
10
126.85000000000001
20
-49.515634999999996
10
139.84999999999999
20
-49.515634999999989
42
-0.41421356237309509
10
140.34999999999999
20
-50.015634999999996
10
140.34999999999999
20
-63.015635000000003
42
-0.41421356237309509
10
139.84999999999999
20
-63.515635000000003
10
126.85000000000001
20
-63.51563500000001
42
-0.41421356237309509
10
126.34999999999999
20
-63.015635000000003
10
126.35000000000002
20
-50.015634999999996
42
-0.41421356237309509
0
LWPOLYLINE
5
140
100
AcDbEntity
8
0
100
AcDbPolyline
90
8
70
1
43
0.0
10
145.90000000000001
20
-49.515634999999996
10
158.90000000000001
20
-49.515634999999989
42
-0.41421356237309509
10
159.40000000000001
20
-50.015634999999996
10
159.40000000000001
20
-63.015635000000003
42
-0.41421356237309509
10
158.90000000000001
20
-63.515635000000003
10
145.90000000000001
20
-63.51563500000001
42
-0.41421356237309509
10
145.40000000000001
20
-63.015635000000003
10
145.40000000000003
20
-50.015634999999996
42
-0.41421356237309509
0
LWPOLYLINE
5
141
100
AcDbEntity
8
0
100
AcDbPolyline
90
8
70
1
43
0.0
10
164.95000000000002
20
-49.515634999999996
10
177.94999999999999
20
-49.515634999999989
42
-0.41421356237309509
10
178.44999999999999
20
-50.015634999999996
10
178.44999999999999
20
-63.015635000000003
42
-0.41421356237309509
10
177.94999999999999
20
-63.515635000000003
10
164.95000000000002
20
-63.51563500000001
42
-0.41421356237309509
10
164.44999999999999
20
-63.015635000000003
10
164.44999999999999
20
-50.015634999999996
42
-0.41421356237309509
0
LWPOLYLINE
5
142
100
AcDbEntity
8
0
100
AcDbPolyline
90
8
70
1
43
0.0
10
184.00000000000003
20
-49.515634999999996
10
197.00000000000003
20
-49.515635000000024
42
-0.41421356237309509
10
197.5
20
-50.015634999999996
10
197.50000000000003
20
-63.015635000000003
42
-0.41421356237309509
10
197.00000000000003
20
-63.515635000000003
10
184.00000000000003
20
-63.51563500000001
42
-0.41421356237309509
10
183.5
20
-63.015635000000003
10
183.5
20
-50.015634999999996
42
-0.41421356237309509
0
LWPOLYLINE
5
143
100
AcDbEntity
8
0
100
AcDbPolyline
90
8
70
1
43
0.0
10
203.05000000000004
20
-49.515634999999996
10
216.05000000000004
20
-49.515635000000024
42
-0.41421356237309509
10
216.55000000000001
20
-50.015634999999996
10
216.55000000000004
20
-63.015635000000003
42
-0.41421356237309509
10
216.05000000000004
20
-63.515635000000003
10
203.05000000000004
20
-63.51563500000001
42
-0.41421356237309509
10
202.55000000000001
20
-63.015635000000003
10
202.55000000000001
20
-50.015634999999996
42
-0.41421356237309509
0
LWPOLYLINE
5
144
100
AcDbEntity
8
0
100
AcDbPolyline
90
8
70
1
43
0.0
10
222.10000000000002
20
-49.515634999999996
10
235.10000000000002
20
-49.515634999999989
42
-0.41421356237309509
10
235.60000000000002
20
-50.015634999999996
10
235.60000000000002
20
-63.015635000000003
42
-0.41421356237309509
10
235.10000000000002
20
-63.515635000000003
10
222.10000000000002
20
-63.51563500000001
42
-0.41421356237309509
10
221.59999999999999
20
-63.015635000000003
10
221.59999999999999
20
-50.015634999999996
42
-0.41421356237309509
0
LWPOLYLINE
5
145
100
AcDbEntity
8
0
100
AcDbPolyline
90
8
70
1
43
0.0
10
241.15000000000003
20
-49.515634999999996
10
254.15000000000003
20
-49.515634999999989
42
-0.41421356237309509
10
254.65000000000003
20
-50.015634999999996
10
254.65000000000003
20
-63.015635000000003
42
-0.41421356237309509
10
254.15000000000003
20
-63.515635000000003
10
241.15000000000003
20
-63.51563500000001
42
-0.41421356237309509
10
240.65000000000001
20
-63.015635000000003
10
240.65000000000001
20
-50.015634999999996
42
-0.41421356237309509
0
LWPOLYLINE
5
146
100
AcDbEntity
8
0
100
AcDbPolyline
90
8
70
1
43
0.0
10
264.96249999999998
20
-49.515634999999996
10
277.96249999999998
20
-49.515635000000024
42
-0.41421356237309509
10
278.46249999999998
20
-50.015634999999996
10
278.46250000000003
20
-63.015635000000003
42
-0.41421356237309509
10
277.96249999999998
20
-63.515635000000003
10
264.96249999999998
20
-63.51563500000001
42
-0.41421356237309509
10
264.46249999999998
20
-63.015635000000003
10
264.46249999999998
20
-50.015634999999996
42
-0.41421356237309509
0
LWPOLYLINE
5
147
100
AcDbEntity
8
0
100
AcDbPolyline
90
8
70
1
43
0.0
10
293.85563500000001
20
-49.515634999999996
10
306.85563500000001
20
-49.515634999999989
42
-0.41421356237309509
10
307.35563500000001
20
-50.015634999999996
10
307.35563500000001
20
-63.015635000000003
42
-0.41421356237309509
10
306.85563500000001
20
-63.515635000000003
10
293.85563500000001
20
-63.51563500000001
42
-0.41421356237309509
10
293.35563500000001
20
-63.015635000000003
10
293.35563500000001
20
-50.015634999999996
42
-0.41421356237309509
0
LWPOLYLINE
5
148
100
AcDbEntity
8
0
100
AcDbPolyline
90
8
70
1
43
0.0
10
312.90563500000007
20
-49.515634999999996
10
325.90563500000002
20
-49.515634999999953
42
-0.41421356237309509
10
326.40563500000007
20
-50.015634999999996
10
326.40563499999996
20
-63.015635000000003
42
-0.41421356237309509
10
325.90563500000002
20
-63.515635000000003
10
312.90563500000007
20
-63.51563500000001
42
-0.41421356237309509
10
312.40563500000002
20
-63.015635000000003
10
312.40563500000002
20
-50.015634999999996
42
-0.41421356237309509
0
LWPOLYLINE
5
149
100
AcDbEntity
8
0
100
AcDbPolyline
90
8
70
1
43
0.0
10
331.95563500000003
20
-49.515634999999996
10
344.95563500000003
20
-49.515634999999953
42
-0.41421356237309509
10
345.45563500000009
20
-50.015634999999996
10
345.45563500000003
20
-63.015635000000003
42
-0.41421356237309509
10
344.95563500000003
20
-63.515635000000003
10
331.95563500000003
20
-63.515635000000046
42
-0.41421356237309509
10
331.45563500000003
20
-63.015635000000003
10
331.45563500000009
20
-50.015634999999996
42
-0.41421356237309509
0
LWPOLYLINE
5
150
100
AcDbEntity
8
0
100
AcDbPolyline
90
8
70
1
43
0.0
10
5.40625
20
-68.565635
10
23.168749999999999
20
-68.565635000000015
42
-0.41421356237309509
10
23.668749999999999
20
-69.065635000000015
10
23.668750000000006
20
-82.065635
42
-0.41421356237309509
10
23.168749999999999
20
-82.565635
10
5.40625
20
-82.565635
42
-0.41421356237309509
10
4.90625
20
-82.065635
10
4.9062499999999929
20
-69.065635000000015
42
-0.41421356237309509
0
LWPOLYLINE
5
151
100
AcDbEntity
8
0
100
AcDbPolyline
90
8
70
1
43
0.0
10
36.362499999999997
20
-68.565635
10
49.362500000000004
20
-68.565635000000015
42
-0.41421356237309509
10
49.862499999999997
20
-69.065635000000015
10
49.862500000000011
20
-82.065635
42
-0.41421356237309509
10
49.362500000000004
20
-82.565635
10
36.362499999999997
20
-82.565635
42
-0.41421356237309509
10
35.862499999999997
20
-82.065635
10
35.86249999999999
20
-69.065635000000015
42
-0.41421356237309509
0
LWPOLYLINE
5
152
100
AcDbEntity
8
0
100
AcDbPolyline
90
8
70
1
43
0.0
10
55.412500000000009
20
-68.565635
10
68.412499999999994
20
-68.565635000000015
42
-0.41421356237309509
10
68.912499999999994
20
-69.065635000000015
10
68.912500000000009
20
-82.065635
42
-0.41421356237309509
10
68.412499999999994
20
-82.565635
10
55.412500000000009
20
-82.565634999999986
42
-0.41421356237309509
10
54.912500000000009
20
-82.065635
10
54.912500000000001
20
-69.065635000000015
42
-0.41421356237309509
0
LWPOLYLINE
5
153
100
AcDbEntity
8
0
100
AcDbPolyline
90
8
70
1
43
0.0
10
74.462500000000006
20
-68.565635
10
87.46250000000002
20
-68.565635000000015
42
-0.41421356237309509
10
87.962500000000006
20
-69.065635000000015
10
87.96250000000002
20
-82.065635
42
-0.41421356237309509
10
87.46250000000002
20
-82.565635
10
74.462500000000006
20
-82.565634999999986
42
-0.41421356237309509
10
73.962500000000006
20
-82.065635
10
73.962500000000006
20
-69.065635000000015
42
-0.41421356237309509
0
LWPOLYLINE
5
154
100
AcDbEntity
8
0
100
AcDbPolyline
90
8
70
1
43
0.0
10
93.512500000000003
20
-68.565635
10
106.51250000000002
20
-68.565635
42
-0.41421356237309509
10
107.01250000000002
20
-69.065635000000015
10
107.01250000000002
20
-82.065635
42
-0.41421356237309509
10
106.51250000000002
20
-82.565635
10
93.512500000000003
20
-82.565634999999986
42
-0.41421356237309509
10
93.012500000000017
20
-82.065635
10
93.012499999999989
20
-69.065635000000015
42
-0.41421356237309509
0
LWPOLYLINE
5
155
100
AcDbEntity
8
0
100
AcDbPolyline
90
8
70
1
43
0.0
10
112.56250000000001
20
-68.565635
10
125.5625
20
-68.565635
42
-0.41421356237309509
10
126.06250000000001
20
-69.065635000000015
10
126.06250000000001
20
-82.065635
42
-0.41421356237309509
10
125.5625
20
-82.565635
10
112.56250000000001
20
-82.565635
42
-0.41421356237309509
10
112.0625
20
-82.065635
10
112.0625
20
-69.065635000000015
42
-0.41421356237309509
0
LWPOLYLINE
5
156
100
AcDbEntity
8
0
100
AcDbPolyline
90
8
70
1
43
0.0
10
131.61250000000001
20
-68.565635
10
144.61250000000001
20
-68.565635
42
-0.41421356237309509
10
145.11250000000001
20
-69.065635000000015
10
145.11250000000001
20
-82.065635
42
-0.41421356237309509
10
144.61250000000001
20
-82.565635
10
131.61250000000001
20
-82.565635
42
-0.41421356237309509
10
131.11250000000001
20
-82.065635
10
131.11250000000001
20
-69.065635000000015
42
-0.41421356237309509
0
LWPOLYLINE
5
157
100
AcDbEntity
8
0
100
AcDbPolyline
90
8
70
1
43
0.0
10
150.66249999999999
20
-68.565635
10
163.66250000000002
20
-68.565635
42
-0.41421356237309509
10
164.16250000000002
20
-69.065635000000015
10
164.16250000000002
20
-82.065635
42
-0.41421356237309509
10
163.66250000000002
20
-82.565635
10
150.66249999999999
20
-82.565635
42
-0.41421356237309509
10
150.16249999999999
20
-82.065635
10
150.16249999999999
20
-69.065635000000015
42
-0.41421356237309509
0
LWPOLYLINE
5
158
100
AcDbEntity
8
0
100
AcDbPolyline
90
8
70
1
43
0.0
10
169.71250000000001
20
-68.565635
10
182.71250000000003
20
-68.565635
42
-0.41421356237309509
10
183.21250000000003
20
-69.065635000000015
10
183.21250000000003
20
-82.065635
42
-0.41421356237309509
10
182.71250000000003
20
-82.565635
10
169.71250000000001
20
-82.565635
42
-0.41421356237309509
10
169.21250000000001
20
-82.065635
10
169.21250000000001
20
-69.065635000000015
42
-0.41421356237309509
0
LWPOLYLINE
5
159
100
AcDbEntity
8
0
100
AcDbPolyline
90
8
70
1
43
0.0
10
188.76249999999999
20
-68.565635
10
201.76249999999999
20
-68.565635
42
-0.41421356237309509
10
202.26249999999999
20
-69.065635000000015
10
202.26249999999999
20
-82.065635
42
-0.41421356237309509
10
201.76249999999999
20
-82.565635
10
188.76249999999999
20
-82.565635
42
-0.41421356237309509
10
188.26249999999999
20
-82.065635
10
188.26249999999999
20
-69.065635000000015
42
-0.41421356237309509
0
LWPOLYLINE
5
160
100
AcDbEntity
8
0
100
AcDbPolyline
90
8
70
1
43
0.0
10
207.8125
20
-68.565635
10
220.8125
20
-68.565635
42
-0.41421356237309509
10
221.3125
20
-69.065635000000015
10
221.3125
20
-82.065635
42
-0.41421356237309509
10
220.8125
20
-82.565635
10
207.8125
20
-82.565634999999972
42
-0.41421356237309509
10
207.31250000000003
20
-82.065635
10
207.3125
20
-69.065635000000015
42
-0.41421356237309509
0
LWPOLYLINE
5
161
100
AcDbEntity
8
0
100
AcDbPolyline
90
8
70
1
43
0.0
10
226.86250000000001
20
-68.565635
10
239.86250000000001
20
-68.565635
42
-0.41421356237309509
10
240.36250000000001
20
-69.065635000000015
10
240.36250000000001
20
-82.065635
42
-0.41421356237309509
10
239.86250000000001
20
-82.565635
10
226.86250000000001
20
-82.565634999999972
42
-0.41421356237309509
10
226.36250000000004
20
-82.065635
10
226.36250000000001
20
-69.065635000000015
42
-0.41421356237309509
0
LWPOLYLINE
5
162
100
AcDbEntity
8
0
100
AcDbPolyline
90
8
70
1
43
0.0
10
14.93125
20
-87.615634999999997
10
27.931249999999999
20
-87.615634999999997
42
-0.41421356237309509
10
28.431250000000002
20
-88.115634999999997
10
28.431249999999988
20
-101.11563500000001
42
-0.41421356237309509
10
27.931249999999999
20
-101.615635
10
14.93125
20
-101.615635
42
-0.41421356237309509
10
14.431250000000002
20
-101.11563500000001
10
14.431249999999993
20
-88.115634999999997
42
-0.41421356237309509
0
LWPOLYLINE
5
163
100
AcDbEntity
8
0
100
AcDbPolyline
90
8
70
1
43
0.0
10
6.4932500000000006
20
-88.615635000000012
10
12.49325
20
-88.615634999999997
42
-0.41421356237309509
10
12.99325
20
-89.115634999999997
10
12.993250000000007
20
-103.115635
42
-0.41421356237309509
10
12.49325
20
-103.61563500000001
10
6.4932500000000006
20
-103.61563500000001
42
-0.41421356237309509
10
5.9932499999999997
20
-103.115635
10
5.9932500000000113
20
-89.115634999999997
42
-0.41421356237309509
0
LWPOLYLINE
5
164
100
AcDbEntity
8
0
100
AcDbPolyline
90
8
70
1
43
0.0
10
30.369250000000001
20
-88.615635000000012
10
36.369250000000001
20
-88.615634999999997
42
-0.41421356237309509
10
36.869250000000008
20
-89.115634999999997
10
36.869250000000008
20
-103.115635
42
-0.41421356237309509
10
36.369250000000001
20
-103.61563500000001
10
30.369250000000001
20
-103.615635
42
-0.41421356237309509
10
29.869250000000001
20
-103.115635
10
29.869250000000012
20
-89.115634999999997
42
-0.41421356237309509
0
LWPOLYLINE
5
165
100
AcDbEntity
8
0
100
AcDbPolyline
90
8
70
1
43
0.0
10
45.887500000000003
20
-87.615634999999997
10
58.88750000000001
20
-87.615635000000012
42
-0.41421356237309509
10
59.387500000000003
20
-88.115634999999997
10
59.387499999999996
20
-101.11563500000001
42
-0.41421356237309509
10
58.88750000000001
20
-101.615635
10
45.887500000000003
20
-101.615635
42
-0.41421356237309509
10
45.387500000000003
20
-101.11563500000001
10
45.387499999999996
20
-88.115634999999997
42
-0.41421356237309509
0
LWPOLYLINE
5
166
100
AcDbEntity
8
0
100
AcDbPolyline
90
8
70
1
43
0.0
10
64.9375
20
-87.615634999999997
10
77.9375
20
-87.615635000000012
42
-0.41421356237309509
10
78.4375
20
-88.115634999999997
10
78.437499999999986
20
-101.11563500000001
42
-0.41421356237309509
10
77.9375
20
-101.615635
10
64.9375
20
-101.615635
42
-0.41421356237309509
10
64.4375
20
-101.11563500000001
10
64.4375
20
-88.115634999999997
42
-0.41421356237309509
0
LWPOLYLINE
5
167
100
AcDbEntity
8
0
100
AcDbPolyline
90
8
70
1
43
0.0
10
83.987499999999997
20
-87.615634999999997
10
96.987500000000011
20
-87.615634999999997
42
-0.41421356237309509
10
97.487500000000011
20
-88.115634999999997
10
97.487499999999997
20
-101.11563500000001
42
-0.41421356237309509
10
96.987500000000011
20
-101.615635
10
83.987499999999997
20
-101.615635
42
-0.41421356237309509
10
83.487500000000011
20
-101.11563500000001
10
83.487499999999983
20
-88.115634999999997
42
-0.41421356237309509
0
LWPOLYLINE
5
168
100
AcDbEntity
8
0
100
AcDbPolyline
90
8
70
1
43
0.0
10
103.03750000000001
20
-87.615634999999997
10
116.03749999999999
20
-87.615634999999997
42
-0.41421356237309509
10
116.53750000000001
20
-88.115634999999997
10
116.53749999999999
20
-101.11563500000001
42
-0.41421356237309509
10
116.03749999999999
20
-101.615635
10
103.03750000000001
20
-101.61563500000001
42
-0.41421356237309509
10
102.53749999999999
20
-101.11563500000001
10
102.53749999999999
20
-88.115634999999997
42
-0.41421356237309509
0
LWPOLYLINE
5
169
100
AcDbEntity
8
0
100
AcDbPolyline
90
8
70
1
43
0.0
10
122.08750000000002
20
-87.615634999999997
10
135.08750000000001
20
-87.615634999999997
42
-0.41421356237309509
10
135.58750000000001
20
-88.115634999999997
10
135.58750000000001
20
-101.11563500000001
42
-0.41421356237309509
10
135.08750000000001
20
-101.615635
10
122.08750000000002
20
-101.61563500000001
42
-0.41421356237309509
10
121.58750000000001
20
-101.11563500000001
10
121.58750000000001
20
-88.115634999999997
42
-0.41421356237309509
0
LWPOLYLINE
5
170
100
AcDbEntity
8
0
100
AcDbPolyline
90
8
70
1
43
0.0
10
141.13749999999999
20
-87.615634999999997
10
154.13749999999999
20
-87.615635000000012
42
-0.41421356237309509
10
154.63749999999999
20
-88.115634999999997
10
154.63749999999999
20
-101.11563500000001
42
-0.41421356237309509
10
154.13749999999999
20
-101.615635
10
141.13749999999999
20
-101.61563500000001
42
-0.41421356237309509
10
140.63749999999999
20
-101.11563500000001
10
140.63749999999999
20
-88.115634999999997
42
-0.41421356237309509
0
LWPOLYLINE
5
171
100
AcDbEntity
8
0
100
AcDbPolyline
90
8
70
1
43
0.0
10
160.1875
20
-87.615634999999997
10
173.1875
20
-87.615634999999997
42
-0.41421356237309509
10
173.68750000000003
20
-88.115634999999997
10
173.6875
20
-101.11563500000001
42
-0.41421356237309509
10
173.1875
20
-101.615635
10
160.1875
20
-101.61563500000001
42
-0.41421356237309509
10
159.6875
20
-101.11563500000001
10
159.6875
20
-88.115634999999997
42
-0.41421356237309509
0
LWPOLYLINE
5
172
100
AcDbEntity
8
0
100
AcDbPolyline
90
8
70
1
43
0.0
10
179.23750000000001
20
-87.615634999999997
10
192.23750000000001
20
-87.615634999999997
42
-0.41421356237309509
10
192.73750000000004
20
-88.115634999999997
10
192.73750000000001
20
-101.11563500000001
42
-0.41421356237309509
10
192.23750000000001
20
-101.615635
10
179.23750000000001
20
-101.61563500000001
42
-0.41421356237309509
10
178.73750000000001
20
-101.11563500000001
10
178.73750000000001
20
-88.115634999999997
42
-0.41421356237309509
0
LWPOLYLINE
5
173
100
AcDbEntity
8
0
100
AcDbPolyline
90
8
70
1
43
0.0
10
198.28749999999999
20
-87.615634999999997
10
211.28749999999999
20
-87.615634999999997
42
-0.41421356237309509
10
211.78750000000002
20
-88.115634999999997
10
211.78750000000002
20
-101.11563500000001
42
-0.41421356237309509
10
211.28749999999999
20
-101.615635
10
198.28749999999999
20
-101.61563499999998
42
-0.41421356237309509
10
197.78750000000002
20
-101.11563500000001
10
197.78749999999999
20
-88.115634999999997
42
-0.41421356237309509
0
LWPOLYLINE
5
174
100
AcDbEntity
8
0
100
AcDbPolyline
90
8
70
1
43
0.0
10
217.33750000000001
20
-87.615634999999997
10
230.33750000000001
20
-87.615634999999997
42
-0.41421356237309509
10
230.83750000000003
20
-88.115634999999997
10
230.83750000000003
20
-101.11563500000001
42
-0.41421356237309509
10
230.33750000000001
20
-101.615635
10
217.33750000000001
20
-101.61563499999998
42
-0.41421356237309509
10
216.83750000000003
20
-101.11563500000001
10
216.83750000000001
20
-88.115634999999997
42
-0.41421356237309509
0
LWPOLYLINE
5
175
100
AcDbEntity
8
0
100
AcDbPolyline
90
8
70
1
43
0.0
10
312.90563500000007
20
-87.615634999999997
10
325.90563500000002
20
-87.615634999999955
42
-0.41421356237309509
10
326.40563500000007
20
-88.115634999999997
10
326.40563499999996
20
-101.11563500000001
42
-0.41421356237309509
10
325.90563500000002
20
-101.615635
10
312.90563500000007
20
-101.61563500000001
42
-0.41421356237309509
10
312.40563500000002
20
-101.11563500000001
10
312.40563500000002
20
-88.115634999999997
42
-0.41421356237309509
0
LWPOLYLINE
5
176
100
AcDbEntity
8
0
100
AcDbPolyline
90
8
70
1
43
0.0
10
5.40625
20
-106.66563500000002
10
20.787500000000001
20
-106.66563500000002
42
-0.41421356237309509
10
21.287500000000001
20
-107.16563500000001
10
21.287499999999994
20
-120.16563500000002
42
-0.41421356237309509
10
20.787500000000001
20
-120.66563500000001
10
5.40625
20
-120.66563500000002
42
-0.41421356237309509
10
4.90625
20
-120.16563500000002
10
4.9062500000000107
20
-107.16563500000001
42
-0.41421356237309509
0
LWPOLYLINE
5
177
100
AcDbEntity
8
0
100
AcDbPolyline
90
8
70
1
43
0.0
10
29.21875
20
-106.66563500000002
10
44.600000000000001
20
-106.66563500000001
42
-0.41421356237309509
10
45.100000000000009
20
-107.16563500000001
10
45.099999999999987
20
-120.16563500000002
42
-0.41421356237309509
10
44.600000000000001
20
-120.66563500000001
10
29.21875
20
-120.66563500000001
42
-0.41421356237309509
10
28.71875
20
-120.16563500000002
10
28.718750000000011
20
-107.16563500000001
42
-0.41421356237309509
0
LWPOLYLINE
5
178
100
AcDbEntity
8
0
100
AcDbPolyline
90
8
70
1
43
0.0
10
53.031250000000007
20
-106.66563500000002
10
68.412499999999994
20
-106.66563500000002
42
-0.41421356237309509
10
68.912499999999994
20
-107.16563500000001
10
68.91249999999998
20
-120.16563500000002
42
-0.41421356237309509
10
68.412499999999994
20
-120.66563500000001
10
53.031250000000007
20
-120.66563500000001
42
-0.41421356237309509
10
52.531250000000007
20
-120.16563500000002
10
52.531250000000014
20
-107.16563500000001
42
-0.41421356237309509
0
LINE
5
179
100
AcDbEntity
8
0
100
AcDbLine
10
124.46875
20
-106.66563500000002
30
0
11
137.46875
21
-106.66563500000002
31
0
0
LINE
5
180
100
AcDbEntity
8
0
100
AcDbLine
10
124.46875
20
-120.66563500000001
30
0
11
137.46875
21
-120.66563500000001
31
0
0
LINE
5
181
100
AcDbEntity
8
0
100
AcDbLine
10
123.96875000000001
20
-107.16563500000001
30
0
11
123.96875000000001
21
-120.16563500000002
31
0
0
ARC
5
182
100
AcDbEntity
8
0
100
AcDbCircle
10
124.46875
20
-107.16563500000001
30
0
40
0.49999999999998934
210
0
220
-0
230
1
100
AcDbArc
50
90
51
180
0
ARC
5
183
100
AcDbEntity
8
0
100
AcDbCircle
10
124.46875
20
-120.16563500000002
30
0
40
0.49999999999998934
210
0
220
0
230
1
100
AcDbArc
50
180
51
270
0
LWPOLYLINE
5
184
100
AcDbEntity
8
0
100
AcDbPolyline
90
8
70
1
43
0.0
10
183.96875
20
-119.66563500000001
10
177.96875
20
-119.66563500000004
42
-0.41421356237309509
10
177.46875
20
-119.16563500000002
10
177.46874999999994
20
-105.16563500000002
42
-0.41421356237309509
10
177.96875
20
-104.66563499999999
10
183.96875
20
-104.66563500000001
42
-0.41421356237309509
10
184.46875000000003
20
-105.16563500000002
10
184.46875
20
-119.16563500000002
42
-0.41421356237309509
0
LINE
5
185
100
AcDbEntity
8
0
100
AcDbLine
10
83.96875
20
-119.66563500000001
30
0
11
77.96875
21
-119.66563500000001
31
0
0
LINE
5
186
100
AcDbEntity
8
0
100
AcDbLine
10
83.96875
20
-104.66563499999999
30
0
11
77.96875
21
-104.66563499999999
31
0
0
LINE
5
187
100
AcDbEntity
8
0
100
AcDbLine
10
77.46875
20
-119.16563500000002
30
0
11
77.46875
21
-105.16563500000002
31
0
0
ARC
5
188
100
AcDbEntity
8
0
100
AcDbCircle
10
77.96875
20
-119.16563500000002
30
0
40
0.49999999999999822
210
0
220
0
230
1
100
AcDbArc
50
180
51
270
0
ARC
5
189
100
AcDbEntity
8
0
100
AcDbCircle
10
77.96875
20
-105.16563500000002
30
0
40
0.50000000000002487
210
0
220
-0
230
1
100
AcDbArc
50
90
51
180
0
LINE
5
190
100
AcDbEntity
8
0
100
AcDbLine
10
136.375
20
-106.66563500000002
30
0
11
149.375
21
-106.66563500000002
31
0
0
LINE
5
191
100
AcDbEntity
8
0
100
AcDbLine
10
136.375
20
-120.66563500000001
30
0
11
149.375
21
-120.66563500000001
31
0
0
LINE
5
192
100
AcDbEntity
8
0
100
AcDbLine
10
149.875
20
-107.16563500000001
30
0
11
149.875
21
-120.16563500000002
31
0
0
ARC
5
193
100
AcDbEntity
8
0
100
AcDbCircle
10
149.375
20
-107.16563500000001
30
0
40
0.50000000000000711
210
0
220
0
230
1
100
AcDbArc
50
0
51
90
0
ARC
5
194
100
AcDbEntity
8
0
100
AcDbCircle
10
149.375
20
-120.16563500000002
30
0
40
0.49999999999998934
210
0
220
0
230
1
100
AcDbArc
50
-90
51
0
0
LWPOLYLINE
5
195
100
AcDbEntity
8
0
100
AcDbPolyline
90
16
70
1
43
0.0
10
203.02500000000003
20
-104.66563499999999
10
197.02500000000001
20
-104.66563499999999
42
0.41421356237309509
10
196.52500000000003
20
-105.16563500000002
10
196.52500000000003
20
-106.16563500000001
42
-0.41421356237307427
10
196.02500000000006
20
-106.66563500000002
10
195.90625000000003
20
-106.66563500000002
42
0.41421356237309509
10
195.40625000000003
20
-107.16563500000001
10
195.40625000000003
20
-120.16563500000002
42
0.41421356237309509
10
195.90625000000003
20
-120.66563500000001
10
208.90625
20
-120.66563500000001
42
0.41421356237309509
10
209.40625
20
-120.16563500000002
10
209.40625
20
-107.16563500000001
42
0.41421356237309509
10
208.90625
20
-106.66563500000002
10
204.02500000000003
20
-106.66563500000004
42
-0.41421356237310542
10
203.52500000000003
20
-106.16563500000001
10
203.52500000000003
20
-105.16563500000002
42
0.41421356237309509
0
LINE
5
196
100
AcDbEntity
8
0
100
AcDbLine
10
88.725000000000009
20
-119.66563500000001
30
0
11
82.724999999999994
21
-119.66563500000001
31
0
0
LINE
5
197
100
AcDbEntity
8
0
100
AcDbLine
10
88.725000000000009
20
-104.66563499999999
30
0
11
82.724999999999994
21
-104.66563499999999
31
0
0
LINE
5
198
100
AcDbEntity
8
0
100
AcDbLine
10
89.224999999999994
20
-119.16563500000002
30
0
11
89.224999999999994
21
-105.16563500000002
31
0
0
ARC
5
199
100
AcDbEntity
8
0
100
AcDbCircle
10
88.725000000000009
20
-119.16563500000002
30
0
40
0.49999999999998934
210
0
220
0
230
1
100
AcDbArc
50
-90
51
0
0
ARC
5
200
100
AcDbEntity
8
0
100
AcDbCircle
10
88.725000000000009
20
-105.16563500000002
30
0
40
0.49999999999998934
210
0
220
0
230
1
100
AcDbArc
50
0
51
90
0
LWPOLYLINE
5
201
100
AcDbEntity
8
0
100
AcDbPolyline
90
8
70
1
43
0.0
10
216.83750000000003
20
-107.16563500000001
10
216.83750000000003
20
-120.16563500000002
42
0.41421356237309509
10
217.33750000000001
20
-120.66563500000001
10
232.71875
20
-120.66563500000001
42
0.41421356237309509
10
233.21875000000003
20
-120.16563500000002
10
233.21875000000003
20
-107.16563500000001
42
0.41421356237309509
10
232.71875
20
-106.66563500000002
10
217.33750000000001
20
-106.66563500000002
42
0.41421356237309509
0
LWPOLYLINE
5
202
100
AcDbEntity
8
0
100
AcDbPolyline
90
8
70
1
43
0.0
10
240.65000000000001
20
-107.16563500000001
10
240.65000000000001
20
-120.16563500000002
42
0.41421356237309509
10
241.15000000000003
20
-120.66563500000001
10
256.53125
20
-120.66563500000001
42
0.41421356237309509
10
257.03125
20
-120.16563500000002
10
257.03125
20
-107.16563500000001
42
0.41421356237309509
10
256.53125
20
-106.66563500000002
10
241.15000000000003
20
-106.66563500000002
42
0.41421356237309509
0
LWPOLYLINE
5
203
100
AcDbEntity
8
0
100
AcDbPolyline
90
8
70
1
43
0.0
10
264.46249999999998
20
-107.16563500000001
10
264.46249999999998
20
-120.16563500000002
42
0.41421356237309509
10
264.96249999999998
20
-120.66563500000001
10
280.34375
20
-120.66563500000001
42
0.41421356237309509
10
280.84375
20
-120.16563500000002
10
280.84375
20
-107.16563500000001
42
0.41421356237309509
10
280.34375
20
-106.66563500000002
10
264.96249999999998
20
-106.66563500000002
42
0.41421356237309509
0
LWPOLYLINE
5
204
100
AcDbEntity
8
0
100
AcDbPolyline
90
8
70
1
43
0.0
10
293.85563500000001
20
-106.66563500000002
10
306.85563500000001
20
-106.66563500000001
42
-0.41421356237309509
10
307.35563500000001
20
-107.16563500000001
10
307.35563500000001
20
-120.16563500000002
42
-0.41421356237309509
10
306.85563500000001
20
-120.66563500000001
10
293.85563500000001
20
-120.66563500000002
42
-0.41421356237309509
10
293.35563500000001
20
-120.16563500000002
10
293.35563500000006
20
-107.16563500000001
42
-0.41421356237309509
0
LWPOLYLINE
5
205
100
AcDbEntity
8
0
100
AcDbPolyline
90
8
70
1
43
0.0
10
312.90563500000007
20
-106.66563500000002
10
325.90563500000002
20
-106.66563499999997
42
-0.41421356237309509
10
326.40563500000007
20
-107.16563500000001
10
326.40563499999996
20
-120.16563500000002
42
-0.41421356237309509
10
325.90563500000002
20
-120.66563500000001
10
312.90563500000007
20
-120.66563500000002
42
-0.41421356237309509
10
312.40563500000002
20
-120.16563500000002
10
312.40563500000007
20
-107.16563500000001
42
-0.41421356237309509
0
LWPOLYLINE
5
206
100
AcDbEntity
8
0
100
AcDbPolyline
90
8
70
1
43
0.0
10
331.95563500000003
20
-106.66563500000002
10
344.95563500000003
20
-106.66563499999997
42
-0.41421356237309509
10
345.45563500000009
20
-107.16563500000001
10
345.45563500000003
20
-120.16563500000002
42
-0.41421356237309509
10
344.95563500000003
20
-120.66563500000001
10
331.95563500000003
20
-120.66563500000007
42
-0.41421356237309509
10
331.45563500000003
20
-120.16563500000002
10
331.45563500000009
20
-107.16563500000001
42
-0.41421356237309509
0
LWPOLYLINE
5
207
100
AcDbEntity
8
0
100
AcDbPolyline
90
8
70
1
43
0.0
10
0.99999999999999201
20
-125.34963500000002
10
346.98063500000001
20
-125.34963500000002
42
0.41421356237312101
10
347.98063500000012
20
-124.34963500000002
10
347.98063500000006
20
1.1589999999999989
42
0.41421356237309509
10
346.98063500000001
20
2.1589999999999989
10
0.99999999999999201
20
2.1589999999999989
42
0.41421356237309509
10
-8.8817841970012523e-15
20
1.1589999999999989
10
-8.8817841970012523e-15
20
-124.34963500000002
42
0.41421356237309637
0
LWPOLYLINE
5
208
100
AcDbEntity
8
0
100
AcDbPolyline
90
8
70
1
43
0.0
10
226.86250000000001
20
-82.565635
10
239.86250000000001
20
-82.565635
42
0.41421356237309509
10
240.36250000000001
20
-82.065635
10
240.36250000000001
20
-69.065635000000015
42
0.41421356237309509
10
239.86250000000001
20
-68.565635
10
226.86250000000001
20
-68.565635
42
0.41421356237309509
10
226.36250000000004
20
-69.065635000000015
10
226.36250000000004
20
-82.065635
42
0.41421356237309509
0
LWPOLYLINE
5
209
100
AcDbEntity
8
0
100
AcDbPolyline
90
24
70
1
43
0.0
10
243.53125000000003
20
-87.615634999999997
42
0.41421356237309509
10
243.03125
20
-88.115634999999997
10
243.03125
20
-101.11563500000001
42
0.41421356237309509
10
243.53125000000003
20
-101.615635
10
243.61825000000005
20
-101.615635
42
-0.41421356237307427
10
244.11824999999999
20
-102.115635
10
244.11824999999999
20
-103.115635
42
0.41421356237309509
10
244.61825000000002
20
-103.61563500000001
10
250.61824999999999
20
-103.61563500000001
42
0.41421356237309509
10
251.11824999999999
20
-103.115635
10
251.11824999999999
20
-102.115635
42
-0.41421356237310542
10
251.61824999999999
20
-101.61563499999998
10
267.49425000000002
20
-101.61563499999998
42
-0.41421356237310542
10
267.99425000000002
20
-102.115635
10
267.99425000000002
20
-103.115635
42
0.41421356237309509
10
268.49425000000002
20
-103.61563500000001
10
274.49425000000008
20
-103.61563500000001
42
0.41421356237309509
10
274.99425000000002
20
-103.115635
10
274.99425000000002
20
-102.115635
42
-0.41421356237313667
10
275.49425000000002
20
-101.615635
10
282.72500000000002
20
-101.615635
42
0.41421356237309509
10
283.22500000000002
20
-101.11563500000001
10
283.22500000000002
20
-88.115634999999997
42
0.41421356237309509
10
282.72500000000002
20
-87.615634999999997
0
LWPOLYLINE
5
210
100
AcDbEntity
8
0
100
AcDbPolyline
90
8
70
1
43
0.0
10
255.38075000000003
20
-81.565635000000015
42
0.41421356237309509
10
255.88075000000003
20
-81.065635
10
255.88075000000003
20
-67.065635
42
0.41421356237309509
10
255.38075000000003
20
-66.565635000000015
10
249.38075000000001
20
-66.565635000000015
42
0.41421356237309509
10
248.88075000000001
20
-67.065635
10
248.88075000000001
20
-81.065635
42
0.41421356237309509
10
249.38075000000001
20
-81.565635000000015
0
LWPOLYLINE
5
211
100
AcDbEntity
8
0
100
AcDbPolyline
90
8
70
1
43
0.0
10
273.25675000000001
20
-66.565635000000015
42
0.41421356237309509
10
272.75675000000001
20
-67.065635
10
272.75675000000001
20
-81.065635
42
0.41421356237309509
10
273.25675000000001
20
-81.565635000000015
10
279.25675000000001
20
-81.565635000000015
42
0.41421356237309509
10
279.75675000000001
20
-81.065635
10
279.75675000000001
20
-67.065635
42
0.41421356237309509
10
279.25675000000001
20
-66.565635000000015
0
LWPOLYLINE
5
212
100
AcDbEntity
8
0
100
AcDbPolyline
90
8
70
1
43
0.0
10
257.31875000000002
20
-69.065635000000015
10
257.31875000000002
20
-82.065635
42
0.41421356237309509
10
257.81875000000002
20
-82.565635
10
270.81875000000002
20
-82.565635
42
0.41421356237309509
10
271.31875000000002
20
-82.065635
10
271.31875000000002
20
-69.065635000000015
42
0.41421356237309509
10
270.81875000000002
20
-68.565635
10
257.81875000000002
20
-68.565635
42
0.41421356237309509
0
CIRCLE
5
213
100
AcDbEntity
8
0
100
AcDbCircle
10
309.88063500000004
20
-23.495317499999999
30
0
40
3.8100000000000001
210
0
220
0
230
1
0
CIRCLE
5
214
100
AcDbEntity
8
0
100
AcDbCircle
10
328.93063500000005
20
-23.495317499999999
30
0
40
3.8100000000000023
210
0
220
0
230
1
0
CIRCLE
5
215
100
AcDbEntity
8
0
100
AcDbCircle
10
288.29063500000007
20
-23.495317499999999
30
0
40
1.524
210
0
220
0
230
1
0
CIRCLE
5
216
100
AcDbEntity
8
0
100
AcDbCircle
10
173.99063500000005
20
-23.495317499999999
30
0
40
3.0480000000000067
210
0
220
0
230
1
0
CIRCLE
5
217
100
AcDbEntity
8
0
100
AcDbCircle
10
57.149999999999999
20
-23.495317499999999
30
0
40
1.5240000000000014
210
0
220
0
230
1
0
ENDSEC
0
SECTION
2
OBJECTS
0
DICTIONARY
5
C
100
AcDbDictionary
3
ACAD_GROUP
350
D
3
ACAD_MLINESTYLE
350
17
0
DICTIONARY
5
D
100
AcDbDictionary
0
DICTIONARY
5
1A
330
C
100
AcDbDictionary
0
DICTIONARY
5
17
100
AcDbDictionary
0
ENDSEC
0
EOF
